<svg width="20" height="21" viewBox="0 0 20 21" fill="none" xmlns="http://www.w3.org/2000/svg">
<g filter="url(#filter0_d_2589_560)">
<path d="M8.66699 4.33366C8.66699 3.96547 8.36851 3.66699 8.00033 3.66699C7.63213 3.66699 7.33366 3.96547 7.33366 4.33366V8.00033C7.33366 8.17714 7.4039 8.34671 7.52892 8.47173L9.52892 10.4717C9.78927 10.7321 10.2114 10.7321 10.4717 10.4717C10.7321 10.2114 10.7321 9.78927 10.4717 9.52892L8.66699 7.72418V4.33366Z" fill="#787A80"/>
<path fill-rule="evenodd" clip-rule="evenodd" d="M8.00033 0.666992C3.95024 0.666992 0.666992 3.95024 0.666992 8.00033C0.666992 12.0504 3.95024 15.3337 8.00033 15.3337C12.0504 15.3337 15.3337 12.0504 15.3337 8.00033C15.3337 3.95024 12.0504 0.666992 8.00033 0.666992ZM2.00033 8.00033C2.00033 4.68662 4.68662 2.00033 8.00033 2.00033C11.314 2.00033 14.0003 4.68662 14.0003 8.00033C14.0003 11.314 11.314 14.0003 8.00033 14.0003C4.68662 14.0003 2.00033 11.314 2.00033 8.00033Z" fill="#787A80"/>
</g>
<defs>
<filter id="filter0_d_2589_560" x="-3.33301" y="0.666992" width="22.667" height="22.667" filterUnits="userSpaceOnUse" color-interpolation-filters="sRGB">
<feFlood flood-opacity="0" result="BackgroundImageFix"/>
<feColorMatrix in="SourceAlpha" type="matrix" values="0 0 0 0 0 0 0 0 0 0 0 0 0 0 0 0 0 0 127 0" result="hardAlpha"/>
<feOffset dy="4"/>
<feGaussianBlur stdDeviation="2"/>
<feComposite in2="hardAlpha" operator="out"/>
<feColorMatrix type="matrix" values="0 0 0 0 0 0 0 0 0 0 0 0 0 0 0 0 0 0 0.25 0"/>
<feBlend mode="normal" in2="BackgroundImageFix" result="effect1_dropShadow_2589_560"/>
<feBlend mode="normal" in="SourceGraphic" in2="effect1_dropShadow_2589_560" result="shape"/>
</filter>
</defs>
</svg>
